<?xml version="1.0" standalone="no"?>
<svg xmlns:xlink="http://www.w3.org/1999/xlink" id="wave" style="transform:rotate(180deg); transition: 0.3s" viewBox="0 0 1440 440" version="1.1" xmlns="http://www.w3.org/2000/svg"><defs><linearGradient id="sw-gradient-0" x1="0" x2="0" y1="1" y2="0"><stop stop-color="rgba(255, 224, 199, 1)" offset="0%"/><stop stop-color="rgba(216.712, 171.293, 134.665, 1)" offset="100%"/></linearGradient></defs><path style="transform:translate(0, 0px); opacity:1" fill="url(#sw-gradient-0)" d="M0,176L12.6,168.7C25.3,161,51,147,76,161.3C101.1,176,126,220,152,242C176.8,264,202,264,227,286C252.6,308,278,352,303,359.3C328.4,367,354,337,379,308C404.2,279,429,249,455,242C480,235,505,249,531,278.7C555.8,308,581,352,606,330C631.6,308,657,220,682,176C707.4,132,733,132,758,168.7C783.2,205,808,279,834,278.7C858.9,279,884,205,909,176C934.7,147,960,161,985,205.3C1010.5,249,1036,323,1061,344.7C1086.3,367,1112,337,1137,308C1162.1,279,1187,249,1213,234.7C1237.9,220,1263,220,1288,249.3C1313.7,279,1339,337,1364,352C1389.5,367,1415,337,1440,300.7C1465.3,264,1491,220,1516,198C1541.1,176,1566,176,1592,198C1616.8,220,1642,264,1667,264C1692.6,264,1718,220,1743,212.7C1768.4,205,1794,235,1806,249.3L1818.9,264L1818.9,440L1806.3,440C1793.7,440,1768,440,1743,440C1717.9,440,1693,440,1667,440C1642.1,440,1617,440,1592,440C1566.3,440,1541,440,1516,440C1490.5,440,1465,440,1440,440C1414.7,440,1389,440,1364,440C1338.9,440,1314,440,1288,440C1263.2,440,1238,440,1213,440C1187.4,440,1162,440,1137,440C1111.6,440,1086,440,1061,440C1035.8,440,1011,440,985,440C960,440,935,440,909,440C884.2,440,859,440,834,440C808.4,440,783,440,758,440C732.6,440,707,440,682,440C656.8,440,632,440,606,440C581.1,440,556,440,531,440C505.3,440,480,440,455,440C429.5,440,404,440,379,440C353.7,440,328,440,303,440C277.9,440,253,440,227,440C202.1,440,177,440,152,440C126.3,440,101,440,76,440C50.5,440,25,440,13,440L0,440Z"/></svg>